<svg xmlns="http://www.w3.org/2000/svg" width="1920" height="600" viewBox="0 0 1920 600">
  <defs>
    <linearGradient id="bg" x1="0" y1="0" x2="0.5" y2="1">
      <stop offset="0%" stop-color="#1a3a2a"/>
      <stop offset="100%" stop-color="#224c38"/>
    </linearGradient>
  </defs>
  <rect width="1920" height="600" fill="url(#bg)"/>
  <!-- Location pin shapes -->
  <g opacity="0.06" fill="#43a96d">
    <path d="M1700,120 c0-30 25-55 55-55 s55,25 55,55 c0,40-55,80-55,80 s-55-40-55-80z"/>
    <circle cx="1755" cy="118" r="18" fill="#224c38"/>
    <path d="M150,400 c0-25 20-45 45-45 s45,20 45,45 c0,33-45,65-45,65 s-45-32-45-65z"/>
    <circle cx="195" cy="398" r="15" fill="#224c38"/>
  </g>
  <!-- Topographic-style lines -->
  <g opacity="0.05" fill="none" stroke="#6bc48e" stroke-width="1">
    <path d="M0,500 Q200,480 400,490 Q600,500 800,485 Q1000,470 1200,480 Q1400,490 1600,475 Q1800,460 1920,470"/>
    <path d="M0,450 Q200,430 400,440 Q600,450 800,435 Q1000,420 1200,430 Q1400,440 1600,425 Q1800,410 1920,420"/>
    <path d="M0,400 Q200,380 400,390 Q600,400 800,385 Q1000,370 1200,380 Q1400,390 1600,375 Q1800,360 1920,370"/>
    <path d="M0,350 Q200,330 400,340 Q600,350 800,335 Q1000,320 1200,330 Q1400,340 1600,325 Q1800,310 1920,320"/>
    <path d="M0,300 Q200,280 400,290 Q600,300 800,285 Q1000,270 1200,280 Q1400,290 1600,275 Q1800,260 1920,270"/>
  </g>
  <!-- Scattered trees -->
  <g opacity="0.08" fill="#388e5c">
    <polygon points="400,600 430,500 460,600"/>
    <polygon points="700,600 740,480 780,600"/>
    <polygon points="1000,600 1035,510 1070,600"/>
    <polygon points="1300,600 1340,490 1380,600"/>
    <polygon points="1600,600 1630,520 1660,600"/>
  </g>
</svg>
